<?xml version="1.0" encoding="utf-8"?>
<!-- Generator: Adobe Illustrator 27.8.1, SVG Export Plug-In . SVG Version: 6.00 Build 0)  -->
<svg version="1.1" id="Layer_1" xmlns="http://www.w3.org/2000/svg" xmlns:xlink="http://www.w3.org/1999/xlink" x="0px" y="0px"
	 viewBox="0 0 96 96" style="enable-background:new 0 0 96 96;" xml:space="preserve">
<style type="text/css">
	.st0{clip-path:url(#SVGID_00000096779251709277483680000014583574105148203696_);}
	.st1{fill:#EF425A;}
	.st2{fill:#080607;}
	.st3{clip-path:url(#SVGID_00000180358667223671654230000012079239352634648223_);}
	.st4{fill:#FFFFFF;}
</style>
<g>
	<g>
		<defs>
			<path id="SVGID_00000177453966075036865090000003917656208854502585_" d="M14.9,87.4c1.9-1.6,3.8-3.2,5.6-4.8
				c0.7-0.7,1.3-1.5,2-2.3c0.4-0.4,0.3-0.8-0.1-1.1c-2.9-2.4-5.3-5.3-7.2-8.6c-0.2-0.3-0.6-0.6-1-0.8c-4-1.4-6.2-4.5-6.2-8.7
				c0-3.4,0-6.9,0-10.3c0-4.1,1.9-7,5.7-8.6c0.4-0.2,0.8-0.5,1-0.9c3.8-7,9.5-12,16.8-15.2c0.8-0.3,0.9-0.7,0.6-1.5
				c-1.1-2.6-2.1-5.2-3-7.9c-0.2-0.6-0.6-1-1.2-1.3c-2.4-0.9-3.5-3.5-2.5-5.8c1-2.3,3.6-3.3,5.9-2.3c2.3,1.1,3.2,3.7,2,6
				c-0.3,0.7-0.4,1.2-0.1,1.9C34,18,35,20.7,36,23.4c0.3,0.7,0.7,0.9,1.4,0.7c5.8-1.4,11.6-1.4,17.4,0c0.8,0.2,1.2,0,1.5-0.8
				c1-2.7,2-5.3,3.1-8c0.3-0.7,0.3-1.2-0.1-1.9c-0.8-1.7-0.7-3.4,0.5-4.9c1.2-1.4,2.8-1.9,4.6-1.4c1.8,0.6,2.9,1.9,3.1,3.8
				c0.3,1.9-0.9,3.8-2.8,4.5c-0.7,0.2-1,0.6-1.2,1.2c-1,2.7-2,5.3-3.1,8c-0.3,0.7-0.2,1,0.6,1.3c6,2.6,10.9,6.4,14.7,11.8
				c0.2,0.3,0.4,0.6,0.6,0.9c1,1.8,2.2,3.4,4.2,4.4c2.7,1.4,4,4,4,7.1c0,3.8,0,7.5,0,11.3c0,3.8-2.3,7-5.9,8.2
				c-0.8,0.3-1.2,0.7-1.6,1.3c-6,9.6-14.8,14.9-26,16.4c-7.3,1-14.2-0.2-20.9-3.2c-0.5-0.2-1.2-0.2-1.6,0c-3.8,1.7-7.8,2.8-11.9,3.2
				C16,87.5,15.4,87.4,14.9,87.4z M46.2,43.9c-9.7,0-19.4,0-29.1,0c-4.4,0-7,2.6-7,7c0,3.3,0,6.7,0,10c0,4.5,2.6,7.1,7.1,7.1
				c11.2,0,22.4,0,33.5,0c8.3,0,16.5,0,24.8,0c3.9,0,6.7-2.7,6.7-6.6c0-3.6,0-7.3,0-10.9c0-2.1-0.8-3.8-2.4-5.2
				c-1.3-1.1-2.8-1.4-4.5-1.4C65.7,43.9,55.9,43.9,46.2,43.9z M64.7,11.5c0-0.8-0.7-1.5-1.5-1.5c-0.8,0-1.4,0.7-1.5,1.5
				c0,0.8,0.7,1.5,1.5,1.5C64,13,64.7,12.3,64.7,11.5z M29.1,13c0.8,0,1.5-0.7,1.4-1.6c0-0.8-0.7-1.4-1.5-1.4
				c-0.8,0-1.4,0.7-1.4,1.5C27.7,12.3,28.4,13,29.1,13z"/>
		</defs>
		<clipPath id="SVGID_00000124857075962372575270000003766843300411479455_">
			<use xlink:href="#SVGID_00000177453966075036865090000003917656208854502585_"  style="overflow:visible;"/>
		</clipPath>
		<g style="clip-path:url(#SVGID_00000124857075962372575270000003766843300411479455_);">
			<g>
				<path class="st1" d="M-37,25.8c-31.8,0-57.7-25.9-57.7-57.7S-68.8-89.6-37-89.6s57.7,25.9,57.7,57.7S-5.1,25.8-37,25.8z
					 M-37-88.5c-31.2,0-56.6,25.4-56.6,56.6S-68.2,24.7-37,24.7S19.6-0.7,19.6-31.9S-5.8-88.5-37-88.5z"/>
			</g>
			<g>
				<path class="st1" d="M-33,29.7c-31.8,0-57.7-25.9-57.7-57.7S-64.8-85.7-33-85.7S24.7-59.8,24.7-28S-1.2,29.7-33,29.7z M-33-84.6
					c-31.2,0-56.6,25.4-56.6,56.6S-64.2,28.6-33,28.6S23.6,3.2,23.6-28S-1.8-84.6-33-84.6z"/>
			</g>
			<g>
				<path class="st1" d="M-29.8,34.1c-31.8,0-57.7-25.9-57.7-57.7s25.9-57.7,57.7-57.7s57.7,25.9,57.7,57.7S2,34.1-29.8,34.1z
					 M-29.8-80.2c-31.2,0-56.6,25.4-56.6,56.6S-61,33-29.8,33S26.8,7.6,26.8-23.6S1.4-80.2-29.8-80.2z"/>
			</g>
			<g>
				<path class="st1" d="M-27.2,37.9C-59,37.9-84.9,12-84.9-19.8S-59-77.5-27.2-77.5s57.7,25.9,57.7,57.7S4.6,37.9-27.2,37.9z
					 M-27.2-76.4c-31.2,0-56.6,25.4-56.6,56.6s25.4,56.6,56.6,56.6s56.6-25.4,56.6-56.6S4-76.4-27.2-76.4z"/>
			</g>
			<g>
				<path class="st1" d="M-24.3,41.4C-56.1,41.4-82,15.5-82-16.3S-56.1-74-24.3-74s57.7,25.9,57.7,57.7S7.6,41.4-24.3,41.4z
					 M-24.3-72.9c-31.2,0-56.6,25.4-56.6,56.6s25.4,56.6,56.6,56.6s56.6-25.4,56.6-56.6S6.9-72.9-24.3-72.9z"/>
			</g>
			<g>
				<path class="st1" d="M-22.2,44.3c-31.8,0-57.7-25.9-57.7-57.7S-54-71.1-22.2-71.1s57.7,25.9,57.7,57.7S9.6,44.3-22.2,44.3z
					 M-22.2-70c-31.2,0-56.6,25.4-56.6,56.6s25.4,56.6,56.6,56.6s56.6-25.4,56.6-56.6S9-70-22.2-70z"/>
			</g>
			<g>
				<path class="st1" d="M-19.6,47.5c-31.8,0-57.7-25.9-57.7-57.7s25.9-57.7,57.7-57.7S38.1-42,38.1-10.2S12.2,47.5-19.6,47.5z
					 M-19.6-66.7c-31.2,0-56.6,25.4-56.6,56.6s25.4,56.6,56.6,56.6S37,21,37-10.2S11.6-66.7-19.6-66.7z"/>
			</g>
			<g>
				<path class="st1" d="M-17.5,50.7c-31.8,0-57.7-25.9-57.7-57.7s25.9-57.7,57.7-57.7S40.1-38.8,40.1-7S14.3,50.7-17.5,50.7z
					 M-17.5-63.5c-31.2,0-56.6,25.4-56.6,56.6s25.4,56.6,56.6,56.6S39,24.2,39-7S13.6-63.5-17.5-63.5z"/>
			</g>
			<g>
				<path class="st1" d="M-16.1,54.5c-31.8,0-57.7-25.9-57.7-57.7s25.9-57.7,57.7-57.7S41.6-35,41.6-3.2S15.7,54.5-16.1,54.5z
					 M-16.1-59.7c-31.2,0-56.6,25.4-56.6,56.6s25.4,56.6,56.6,56.6S40.5,28,40.5-3.2S15.1-59.7-16.1-59.7z"/>
			</g>
			<g>
				<path class="st1" d="M-14.6,57.4c-31.8,0-57.7-25.9-57.7-57.7s25.9-57.7,57.7-57.7S43.1-32.1,43.1-0.2S17.2,57.4-14.6,57.4z
					 M-14.6-56.8c-31.2,0-56.6,25.4-56.6,56.6s25.4,56.6,56.6,56.6S41.9,30.9,41.9-0.2S16.6-56.8-14.6-56.8z"/>
			</g>
			<g>
				<path class="st1" d="M-12.3,60.4C-44.1,60.4-70,34.5-70,2.7S-44.1-55-12.3-55S45.4-29.1,45.4,2.7S19.5,60.4-12.3,60.4z
					 M-12.3-53.9c-31.2,0-56.6,25.4-56.6,56.6s25.4,56.6,56.6,56.6S44.3,33.9,44.3,2.7S18.9-53.9-12.3-53.9z"/>
			</g>
			<g>
				<path class="st1" d="M-10,63.6c-31.8,0-57.7-25.9-57.7-57.7S-41.8-51.8-10-51.8S47.7-25.9,47.7,5.9S21.9,63.6-10,63.6z
					 M-10-50.7c-31.2,0-56.6,25.4-56.6,56.6S-41.2,62.5-10,62.5S46.6,37.1,46.6,5.9S21.2-50.7-10-50.7z"/>
			</g>
			<g>
				<path class="st1" d="M-7.9,66.8c-31.8,0-57.7-25.9-57.7-57.7s25.9-57.7,57.7-57.7S49.8-22.7,49.8,9.1S23.9,66.8-7.9,66.8z
					 M-7.9-47.5c-31.2,0-56.6,25.4-56.6,56.6s25.4,56.6,56.6,56.6S48.7,40.3,48.7,9.1S23.3-47.5-7.9-47.5z"/>
			</g>
			<g>
				<path class="st1" d="M-6.5,70c-31.8,0-57.7-25.9-57.7-57.7s25.9-57.7,57.7-57.7s57.7,25.9,57.7,57.7S25.4,70-6.5,70z M-6.5-44.3
					C-37.7-44.3-63-18.9-63,12.3s25.4,56.6,56.6,56.6s56.6-25.4,56.6-56.6S24.7-44.3-6.5-44.3z"/>
			</g>
			<g>
				<path class="st1" d="M-3.5,73.8c-31.8,0-57.7-25.9-57.7-57.7s25.9-57.7,57.7-57.7s57.7,25.9,57.7,57.7S28.3,73.8-3.5,73.8z
					 M-3.5-40.5c-31.2,0-56.6,25.4-56.6,56.6s25.4,56.6,56.6,56.6S53,47.3,53,16.1S27.7-40.5-3.5-40.5z"/>
			</g>
			<g>
				<path class="st1" d="M-1.2,77C-33,77-58.9,51.1-58.9,19.3S-33-38.4-1.2-38.4s57.7,25.9,57.7,57.7S30.6,77-1.2,77z M-1.2-37.3
					c-31.2,0-56.6,25.4-56.6,56.6s25.4,56.6,56.6,56.6s56.6-25.4,56.6-56.6S30-37.3-1.2-37.3z"/>
			</g>
			<g>
				<path class="st1" d="M1.7,79C-30.1,79-56,53.2-56,21.4s25.9-57.7,57.7-57.7s57.7,25.9,57.7,57.7S33.5,79,1.7,79z M1.7-35.2
					c-31.2,0-56.6,25.4-56.6,56.6s25.4,56.6,56.6,56.6s56.6-25.4,56.6-56.6S32.9-35.2,1.7-35.2z"/>
			</g>
			<g>
				<path class="st1" d="M4.6,81.1c-31.8,0-57.7-25.9-57.7-57.7s25.9-57.7,57.7-57.7S62.3-8.4,62.3,23.4S36.4,81.1,4.6,81.1z
					 M4.6-33.2c-31.2,0-56.6,25.4-56.6,56.6S-26.6,80,4.6,80s56.6-25.4,56.6-56.6S35.8-33.2,4.6-33.2z"/>
			</g>
			<g>
				<path class="st1" d="M7.6,83.1c-31.8,0-57.7-25.9-57.7-57.7s25.9-57.7,57.7-57.7S65.2-6.4,65.2,25.4S39.4,83.1,7.6,83.1z
					 M7.6-31.1C-23.6-31.1-49-5.8-49,25.4S-23.6,82,7.6,82s56.6-25.4,56.6-56.6S38.7-31.1,7.6-31.1z"/>
			</g>
			<g>
				<path class="st1" d="M10.5,85.2c-31.8,0-57.7-25.9-57.7-57.7s25.9-57.7,57.7-57.7S68.2-4.3,68.2,27.5S42.3,85.2,10.5,85.2z
					 M10.5-29.1c-31.2,0-56.6,25.4-56.6,56.6s25.4,56.6,56.6,56.6S67,58.7,67,27.5S41.7-29.1,10.5-29.1z"/>
			</g>
			<g>
				<path class="st1" d="M13.4,87.2c-31.8,0-57.7-25.9-57.7-57.7s25.9-57.7,57.7-57.7S71.1-2.3,71.1,29.5S45.2,87.2,13.4,87.2z
					 M13.4-27.1c-31.2,0-56.6,25.4-56.6,56.6s25.4,56.6,56.6,56.6S70,60.7,70,29.5S44.6-27.1,13.4-27.1z"/>
			</g>
			<g>
				<path class="st1" d="M16.3,89.3c-31.8,0-57.7-25.9-57.7-57.7s25.9-57.7,57.7-57.7S74-0.2,74,31.6S48.1,89.3,16.3,89.3z M16.3-25
					c-31.2,0-56.6,25.4-56.6,56.6s25.4,56.6,56.6,56.6s56.6-25.4,56.6-56.6S47.5-25,16.3-25z"/>
			</g>
			<g>
				<path class="st1" d="M19.2,91.3c-31.8,0-57.7-25.9-57.7-57.7s25.9-57.7,57.7-57.7S76.9,1.8,76.9,33.6S51,91.3,19.2,91.3z
					 M19.2-23C-12-23-37.3,2.4-37.3,33.6S-12,90.2,19.2,90.2s56.6-25.4,56.6-56.6S50.4-23,19.2-23z"/>
			</g>
			<g>
				<path class="st1" d="M22.1,93.3c-31.8,0-57.7-25.9-57.7-57.7S-9.7-22,22.1-22S79.8,3.8,79.8,35.7S54,93.3,22.1,93.3z M22.1-20.9
					C-9-20.9-34.4,4.5-34.4,35.7S-9,92.2,22.1,92.2s56.6-25.4,56.6-56.6S53.3-20.9,22.1-20.9z"/>
			</g>
			<g>
				<path class="st1" d="M25.1,95.4c-31.8,0-57.7-25.9-57.7-57.7S-6.7-20,25.1-20S82.8,5.9,82.8,37.7S56.9,95.4,25.1,95.4z
					 M25.1-18.9c-31.2,0-56.6,25.4-56.6,56.6s25.4,56.6,56.6,56.6s56.6-25.4,56.6-56.6S56.3-18.9,25.1-18.9z"/>
			</g>
			<g>
				<path class="st1" d="M28,97.4c-31.8,0-57.7-25.9-57.7-57.7S-3.8-18,28-18S85.7,7.9,85.7,39.7S59.8,97.4,28,97.4z M28-16.8
					c-31.2,0-56.6,25.4-56.6,56.6S-3.2,96.3,28,96.3s56.6-25.4,56.6-56.6S59.2-16.8,28-16.8z"/>
			</g>
			<g>
				<path class="st1" d="M30.9,99.5c-31.8,0-57.7-25.9-57.7-57.7s25.9-57.7,57.7-57.7S88.6,10,88.6,41.8S62.7,99.5,30.9,99.5z
					 M30.9-14.8c-31.2,0-56.6,25.4-56.6,56.6s25.4,56.6,56.6,56.6S87.5,73,87.5,41.8S62.1-14.8,30.9-14.8z"/>
			</g>
			<g>
				<path class="st1" d="M33.8,101.5c-31.8,0-57.7-25.9-57.7-57.7S2-13.9,33.8-13.9S91.5,12,91.5,43.8S65.6,101.5,33.8,101.5z
					 M33.8-12.8c-31.2,0-56.6,25.4-56.6,56.6s25.4,56.6,56.6,56.6S90.4,75,90.4,43.8S65-12.8,33.8-12.8z"/>
			</g>
		</g>
	</g>
	<path class="st4" d="M65,56.2c0,2.5-2,4.6-4.4,4.6c-2.5,0-4.6-2.1-4.6-4.6c0-2.4,2.1-4.6,4.5-4.6C63,51.6,65,53.6,65,56.2z"/>
	<path class="st4" d="M27.6,56.1c0-2.5,2.1-4.5,4.5-4.5c2.4,0,4.5,2.1,4.5,4.6c0,2.4-2.1,4.5-4.5,4.5C29.5,60.7,27.6,58.7,27.6,56.1
		z"/>
</g>
</svg>
